<?xml version="1.0" encoding="UTF-8" standalone="no"?>
<!DOCTYPE svg PUBLIC "-//W3C//DTD SVG 1.1//EN"
 "http://www.w3.org/Graphics/SVG/1.1/DTD/svg11.dtd">
<!-- Generated by graphviz version 2.43.0 (0)
 -->
<!-- Title: inc/mcp9700_thermistor.hpp Pages: 1 -->
<svg width="368pt" height="82pt"
 viewBox="0.00 0.00 367.50 82.00" xmlns="http://www.w3.org/2000/svg" xmlns:xlink="http://www.w3.org/1999/xlink">
<g id="graph0" class="graph" transform="scale(1 1) rotate(0) translate(4 78)">
<title>inc/mcp9700_thermistor.hpp</title>
<!-- Node1 -->
<g id="Node000001" class="node">
<title>Node1</title>
<g id="a_Node000001"><a xlink:title="Hardware&#45;agnostic MCP9700 / MCP9700A linear active thermistor driver.">
<polygon fill="#999999" stroke="#666666" points="201.5,-74 46.5,-74 46.5,-55 201.5,-55 201.5,-74"/>
<text text-anchor="middle" x="124" y="-62" font-family="Helvetica,sans-Serif" font-size="10.00">inc/mcp9700_thermistor.hpp</text>
</a>
</g>
</g>
<!-- Node2 -->
<g id="Node000002" class="node">
<title>Node2</title>
<g id="a_Node000002"><a xlink:title=" ">
<polygon fill="#e0e0e0" stroke="#999999" points="50,-19 0,-19 0,0 50,0 50,-19"/>
<text text-anchor="middle" x="25" y="-7" font-family="Helvetica,sans-Serif" font-size="10.00">cstdint</text>
</a>
</g>
</g>
<!-- Node1&#45;&gt;Node2 -->
<g id="edge1_Node000001_Node000002" class="edge">
<title>Node1&#45;&gt;Node2</title>
<g id="a_edge1_Node000001_Node000002"><a xlink:title=" ">
<path fill="none" stroke="#63b8ff" d="M108.09,-54.98C92.45,-46.61 68.34,-33.7 50.12,-23.95"/>
<polygon fill="#63b8ff" stroke="#63b8ff" points="51.66,-20.8 41.2,-19.17 48.36,-26.98 51.66,-20.8"/>
</a>
</g>
</g>
<!-- Node3 -->
<g id="Node000003" class="node">
<title>Node3</title>
<g id="a_Node000003"><a xlink:title=" ">
<polygon fill="#e0e0e0" stroke="#999999" points="180,-19 68,-19 68,0 180,0 180,-19"/>
<text text-anchor="middle" x="124" y="-7" font-family="Helvetica,sans-Serif" font-size="10.00">mcp9700_version.h</text>
</a>
</g>
</g>
<!-- Node1&#45;&gt;Node3 -->
<g id="edge2_Node000001_Node000003" class="edge">
<title>Node1&#45;&gt;Node3</title>
<g id="a_edge2_Node000001_Node000003"><a xlink:title=" ">
<path fill="none" stroke="#63b8ff" d="M124,-54.75C124,-47.8 124,-37.85 124,-29.13"/>
<polygon fill="#63b8ff" stroke="#63b8ff" points="127.5,-29.09 124,-19.09 120.5,-29.09 127.5,-29.09"/>
</a>
</g>
</g>
<!-- Node4 -->
<g id="Node000004" class="node">
<title>Node4</title>
<g id="a_Node000004"><a xlink:href="mcp9700__thermistor_8ipp.html" target="_top" xlink:title=" ">
<polygon fill="white" stroke="#666666" points="359.5,-19 198.5,-19 198.5,0 359.5,0 359.5,-19"/>
<text text-anchor="middle" x="279" y="-7" font-family="Helvetica,sans-Serif" font-size="10.00">../src/mcp9700_thermistor.ipp</text>
</a>
</g>
</g>
<!-- Node1&#45;&gt;Node4 -->
<g id="edge3_Node000001_Node000004" class="edge">
<title>Node1&#45;&gt;Node4</title>
<g id="a_edge3_Node000001_Node000004"><a xlink:title=" ">
<path fill="none" stroke="#63b8ff" d="M148.9,-54.98C174.7,-46.16 215.22,-32.31 244.18,-22.41"/>
<polygon fill="#63b8ff" stroke="#63b8ff" points="245.57,-25.63 253.9,-19.08 243.31,-19.01 245.57,-25.63"/>
</a>
</g>
</g>
</g>
</svg>
