<?xml version="1.0" encoding="UTF-8" standalone="no"?>
<!DOCTYPE svg PUBLIC "-//W3C//DTD SVG 1.1//EN"
 "http://www.w3.org/Graphics/SVG/1.1/DTD/svg11.dtd">
<!-- Generated by graphviz version 2.43.0 (0)
 -->
<!-- Title: examples/esp32/main/mcp9700_esp32c6_example.cpp Pages: 1 -->
<svg width="1075pt" height="148pt"
 viewBox="0.00 0.00 1074.50 148.00" xmlns="http://www.w3.org/2000/svg" xmlns:xlink="http://www.w3.org/1999/xlink">
<g id="graph0" class="graph" transform="scale(1 1) rotate(0) translate(4 144)">
<title>examples/esp32/main/mcp9700_esp32c6_example.cpp</title>
<!-- Node1 -->
<g id="Node000001" class="node">
<title>Node1</title>
<g id="a_Node000001"><a xlink:title="MCP9700 on ESP32&#45;C6 using ADC1 channel 0 (GPIO0) and hf::mcp9700::Mcp9700Thermistor.">
<polygon fill="#999999" stroke="#666666" points="718.5,-140 539.5,-140 539.5,-110 718.5,-110 718.5,-140"/>
<text text-anchor="start" x="547.5" y="-128" font-family="Helvetica,sans-Serif" font-size="10.00">examples/esp32/main</text>
<text text-anchor="middle" x="629" y="-117" font-family="Helvetica,sans-Serif" font-size="10.00">/mcp9700_esp32c6_example.cpp</text>
</a>
</g>
</g>
<!-- Node2 -->
<g id="Node000002" class="node">
<title>Node2</title>
<g id="a_Node000002"><a xlink:href="mcp9700__thermistor_8hpp.html" target="_top" xlink:title="Hardware&#45;agnostic MCP9700 / MCP9700A linear active thermistor driver.">
<polygon fill="white" stroke="#666666" points="193,-74 55,-74 55,-55 193,-55 193,-74"/>
<text text-anchor="middle" x="124" y="-62" font-family="Helvetica,sans-Serif" font-size="10.00">mcp9700_thermistor.hpp</text>
</a>
</g>
</g>
<!-- Node1&#45;&gt;Node2 -->
<g id="edge1_Node000001_Node000002" class="edge">
<title>Node1&#45;&gt;Node2</title>
<g id="a_edge1_Node000001_Node000002"><a xlink:title=" ">
<path fill="none" stroke="#63b8ff" d="M539.3,-113.61C443.82,-102.55 294.2,-85.22 203.01,-74.65"/>
<polygon fill="#63b8ff" stroke="#63b8ff" points="203.35,-71.17 193.01,-73.49 202.54,-78.12 203.35,-71.17"/>
</a>
</g>
</g>
<!-- Node6 -->
<g id="Node000006" class="node">
<title>Node6</title>
<g id="a_Node000006"><a xlink:title=" ">
<polygon fill="#e0e0e0" stroke="#999999" points="319,-74 211,-74 211,-55 319,-55 319,-74"/>
<text text-anchor="middle" x="265" y="-62" font-family="Helvetica,sans-Serif" font-size="10.00">esp_adc/adc_cali.h</text>
</a>
</g>
</g>
<!-- Node1&#45;&gt;Node6 -->
<g id="edge5_Node000001_Node000006" class="edge">
<title>Node1&#45;&gt;Node6</title>
<g id="a_edge5_Node000001_Node000006"><a xlink:title=" ">
<path fill="none" stroke="#63b8ff" d="M541.81,-109.99C475.9,-99.4 386.98,-85.1 327.9,-75.61"/>
<polygon fill="#63b8ff" stroke="#63b8ff" points="328.39,-72.14 317.96,-74.01 327.27,-79.05 328.39,-72.14"/>
</a>
</g>
</g>
<!-- Node7 -->
<g id="Node000007" class="node">
<title>Node7</title>
<g id="a_Node000007"><a xlink:title=" ">
<polygon fill="#e0e0e0" stroke="#999999" points="489,-74 337,-74 337,-55 489,-55 489,-74"/>
<text text-anchor="middle" x="413" y="-62" font-family="Helvetica,sans-Serif" font-size="10.00">esp_adc/adc_cali_scheme.h</text>
</a>
</g>
</g>
<!-- Node1&#45;&gt;Node7 -->
<g id="edge6_Node000001_Node000007" class="edge">
<title>Node1&#45;&gt;Node7</title>
<g id="a_edge6_Node000001_Node000007"><a xlink:title=" ">
<path fill="none" stroke="#63b8ff" d="M577.26,-109.99C539.66,-99.8 489.44,-86.2 454.47,-76.73"/>
<polygon fill="#63b8ff" stroke="#63b8ff" points="455.15,-73.29 444.58,-74.05 453.32,-80.05 455.15,-73.29"/>
</a>
</g>
</g>
<!-- Node8 -->
<g id="Node000008" class="node">
<title>Node8</title>
<g id="a_Node000008"><a xlink:title=" ">
<polygon fill="#e0e0e0" stroke="#999999" points="637,-74 507,-74 507,-55 637,-55 637,-74"/>
<text text-anchor="middle" x="572" y="-62" font-family="Helvetica,sans-Serif" font-size="10.00">esp_adc/adc_oneshot.h</text>
</a>
</g>
</g>
<!-- Node1&#45;&gt;Node8 -->
<g id="edge7_Node000001_Node000008" class="edge">
<title>Node1&#45;&gt;Node8</title>
<g id="a_edge7_Node000001_Node000008"><a xlink:title=" ">
<path fill="none" stroke="#63b8ff" d="M615.2,-109.84C606.93,-101.35 596.38,-90.52 587.77,-81.69"/>
<polygon fill="#63b8ff" stroke="#63b8ff" points="590.03,-78.99 580.54,-74.27 585.01,-83.87 590.03,-78.99"/>
</a>
</g>
</g>
<!-- Node9 -->
<g id="Node000009" class="node">
<title>Node9</title>
<g id="a_Node000009"><a xlink:title=" ">
<polygon fill="#e0e0e0" stroke="#999999" points="718.5,-74 655.5,-74 655.5,-55 718.5,-55 718.5,-74"/>
<text text-anchor="middle" x="687" y="-62" font-family="Helvetica,sans-Serif" font-size="10.00">esp_log.h</text>
</a>
</g>
</g>
<!-- Node1&#45;&gt;Node9 -->
<g id="edge8_Node000001_Node000009" class="edge">
<title>Node1&#45;&gt;Node9</title>
<g id="a_edge8_Node000001_Node000009"><a xlink:title=" ">
<path fill="none" stroke="#63b8ff" d="M643.04,-109.84C651.55,-101.26 662.41,-90.3 671.22,-81.42"/>
<polygon fill="#63b8ff" stroke="#63b8ff" points="673.75,-83.83 678.31,-74.27 668.78,-78.9 673.75,-83.83"/>
</a>
</g>
</g>
<!-- Node10 -->
<g id="Node000010" class="node">
<title>Node10</title>
<g id="a_Node000010"><a xlink:title=" ">
<polygon fill="#e0e0e0" stroke="#999999" points="849.5,-74 736.5,-74 736.5,-55 849.5,-55 849.5,-74"/>
<text text-anchor="middle" x="793" y="-62" font-family="Helvetica,sans-Serif" font-size="10.00">freertos/FreeRTOS.h</text>
</a>
</g>
</g>
<!-- Node1&#45;&gt;Node10 -->
<g id="edge9_Node000001_Node000010" class="edge">
<title>Node1&#45;&gt;Node10</title>
<g id="a_edge9_Node000001_Node000010"><a xlink:title=" ">
<path fill="none" stroke="#63b8ff" d="M668.28,-109.99C696.01,-100.1 732.78,-86.98 759.2,-77.56"/>
<polygon fill="#63b8ff" stroke="#63b8ff" points="760.54,-80.8 768.78,-74.14 758.19,-74.2 760.54,-80.8"/>
</a>
</g>
</g>
<!-- Node11 -->
<g id="Node000011" class="node">
<title>Node11</title>
<g id="a_Node000011"><a xlink:title=" ">
<polygon fill="#e0e0e0" stroke="#999999" points="956,-74 868,-74 868,-55 956,-55 956,-74"/>
<text text-anchor="middle" x="912" y="-62" font-family="Helvetica,sans-Serif" font-size="10.00">freertos/task.h</text>
</a>
</g>
</g>
<!-- Node1&#45;&gt;Node11 -->
<g id="edge10_Node000001_Node000011" class="edge">
<title>Node1&#45;&gt;Node11</title>
<g id="a_edge10_Node000001_Node000011"><a xlink:title=" ">
<path fill="none" stroke="#63b8ff" d="M696.79,-109.99C747.11,-99.59 814.68,-85.62 860.59,-76.13"/>
<polygon fill="#63b8ff" stroke="#63b8ff" points="861.54,-79.51 870.62,-74.05 860.12,-72.65 861.54,-79.51"/>
</a>
</g>
</g>
<!-- Node12 -->
<g id="Node000012" class="node">
<title>Node12</title>
<g id="a_Node000012"><a xlink:title=" ">
<polygon fill="#e0e0e0" stroke="#999999" points="1066.5,-74 973.5,-74 973.5,-55 1066.5,-55 1066.5,-74"/>
<text text-anchor="middle" x="1020" y="-62" font-family="Helvetica,sans-Serif" font-size="10.00">hal/adc_types.h</text>
</a>
</g>
</g>
<!-- Node1&#45;&gt;Node12 -->
<g id="edge11_Node000001_Node000012" class="edge">
<title>Node1&#45;&gt;Node12</title>
<g id="a_edge11_Node000001_Node000012"><a xlink:title=" ">
<path fill="none" stroke="#63b8ff" d="M718.51,-110.82C783.77,-101.18 874.62,-87.69 963.51,-74.22"/>
<polygon fill="#63b8ff" stroke="#63b8ff" points="964.13,-77.67 973.49,-72.71 963.08,-70.75 964.13,-77.67"/>
</a>
</g>
</g>
<!-- Node3 -->
<g id="Node000003" class="node">
<title>Node3</title>
<g id="a_Node000003"><a xlink:title=" ">
<polygon fill="#e0e0e0" stroke="#999999" points="50,-19 0,-19 0,0 50,0 50,-19"/>
<text text-anchor="middle" x="25" y="-7" font-family="Helvetica,sans-Serif" font-size="10.00">cstdint</text>
</a>
</g>
</g>
<!-- Node2&#45;&gt;Node3 -->
<g id="edge2_Node000002_Node000003" class="edge">
<title>Node2&#45;&gt;Node3</title>
<g id="a_edge2_Node000002_Node000003"><a xlink:title=" ">
<path fill="none" stroke="#63b8ff" d="M108.09,-54.98C92.45,-46.61 68.34,-33.7 50.12,-23.95"/>
<polygon fill="#63b8ff" stroke="#63b8ff" points="51.66,-20.8 41.2,-19.17 48.36,-26.98 51.66,-20.8"/>
</a>
</g>
</g>
<!-- Node4 -->
<g id="Node000004" class="node">
<title>Node4</title>
<g id="a_Node000004"><a xlink:title=" ">
<polygon fill="#e0e0e0" stroke="#999999" points="180,-19 68,-19 68,0 180,0 180,-19"/>
<text text-anchor="middle" x="124" y="-7" font-family="Helvetica,sans-Serif" font-size="10.00">mcp9700_version.h</text>
</a>
</g>
</g>
<!-- Node2&#45;&gt;Node4 -->
<g id="edge3_Node000002_Node000004" class="edge">
<title>Node2&#45;&gt;Node4</title>
<g id="a_edge3_Node000002_Node000004"><a xlink:title=" ">
<path fill="none" stroke="#63b8ff" d="M124,-54.75C124,-47.8 124,-37.85 124,-29.13"/>
<polygon fill="#63b8ff" stroke="#63b8ff" points="127.5,-29.09 124,-19.09 120.5,-29.09 127.5,-29.09"/>
</a>
</g>
</g>
<!-- Node5 -->
<g id="Node000005" class="node">
<title>Node5</title>
<g id="a_Node000005"><a xlink:href="mcp9700__thermistor_8ipp.html" target="_top" xlink:title=" ">
<polygon fill="white" stroke="#666666" points="359.5,-19 198.5,-19 198.5,0 359.5,0 359.5,-19"/>
<text text-anchor="middle" x="279" y="-7" font-family="Helvetica,sans-Serif" font-size="10.00">../src/mcp9700_thermistor.ipp</text>
</a>
</g>
</g>
<!-- Node2&#45;&gt;Node5 -->
<g id="edge4_Node000002_Node000005" class="edge">
<title>Node2&#45;&gt;Node5</title>
<g id="a_edge4_Node000002_Node000005"><a xlink:title=" ">
<path fill="none" stroke="#63b8ff" d="M148.9,-54.98C174.7,-46.16 215.22,-32.31 244.18,-22.41"/>
<polygon fill="#63b8ff" stroke="#63b8ff" points="245.57,-25.63 253.9,-19.08 243.31,-19.01 245.57,-25.63"/>
</a>
</g>
</g>
</g>
</svg>
